HIERARCHY
ROOT Hips
{
	OFFSET 0.000000 0.000000 0.000000
	CHANNELS 6 Xposition Yposition Zposition Xrotation Yrotation Zrotation
	JOINT LeftUpLeg_virtual
	{
		OFFSET 0.000000 0.000000 0.000000
		CHANNELS 3 Xrotation Yrotation Zrotation
		JOINT LeftUpLeg
		{
			OFFSET 15.427100 -6.655098 0.678600
			CHANNELS 3 Xrotation Yrotation Zrotation
			JOINT LeftLeg
			{
				OFFSET 4.081073 -39.591068 13.024000
				CHANNELS 3 Xrotation Yrotation Zrotation
				JOINT LeftFoot
				{
					OFFSET -4.081074 -37.707932 -15.979700
					CHANNELS 3 Xrotation Yrotation Zrotation
					JOINT LeftToeBase
					{
						OFFSET 5.346399 -15.068900 20.645000
						CHANNELS 3 Xrotation Yrotation Zrotation
						JOINT LeftToe_End
						{
							OFFSET 2.754700 0.931300 11.300900
							CHANNELS 3 Xrotation Yrotation Zrotation
							End Site
							{
								OFFSET 0 0 0
							}
						}
					}
				}
			}
		}
	}
	JOINT RightUpLeg_virtual
	{
		OFFSET 0.000000 0.000000 0.000000
		CHANNELS 3 Xrotation Yrotation Zrotation
		JOINT RightUpLeg
		{
			OFFSET -15.569500 -6.655098 0.678600
			CHANNELS 3 Xrotation Yrotation Zrotation
			JOINT RightLeg
			{
				OFFSET -4.081825 -39.591045 13.023800
				CHANNELS 3 Xrotation Yrotation Zrotation
				JOINT RightFoot
				{
					OFFSET 4.081824 -37.707954 -15.979600
					CHANNELS 3 Xrotation Yrotation Zrotation
					JOINT RightToeBase
					{
						OFFSET -5.346400 -15.068900 20.645000
						CHANNELS 3 Xrotation Yrotation Zrotation
						JOINT RightToe_End
						{
							OFFSET -2.754700 0.931300 11.300900
							CHANNELS 3 Xrotation Yrotation Zrotation
							End Site
							{
								OFFSET 0 0 0
							}
						}
					}
				}
			}
		}
	}
	JOINT Spine_virtual
	{
		OFFSET 0.000000 0.000000 0.000000
		CHANNELS 3 Xrotation Yrotation Zrotation
		JOINT Spine
		{
			OFFSET -0.279200 12.230698 -2.892100
			CHANNELS 3 Xrotation Yrotation Zrotation
			JOINT Spine1
			{
				OFFSET -0.232667 10.192268 -1.242267
				CHANNELS 3 Xrotation Yrotation Zrotation
				JOINT Spine1_split
				{
					OFFSET -0.232667 10.192268 -1.242267
					CHANNELS 3 Xrotation Yrotation Zrotation
					JOINT Spine2
					{
						OFFSET -0.232667 10.192268 -1.242267
						CHANNELS 3 Xrotation Yrotation Zrotation
						JOINT Neck_virtual
						{
							OFFSET 0.000000 0.000000 0.000000
							CHANNELS 3 Xrotation Yrotation Zrotation
							JOINT Neck
							{
								OFFSET -0.418800 17.814194 8.416900
								CHANNELS 3 Xrotation Yrotation Zrotation
								JOINT Head
								{
									OFFSET 0.000000 7.031097 3.806800
									CHANNELS 3 Xrotation Yrotation Zrotation
									JOINT HeadTop_End
									{
										OFFSET 0.000000 24.646606 12.978600
										CHANNELS 3 Xrotation Yrotation Zrotation
										End Site
										{
											OFFSET 0 0 0
										}
									}
								}
							}
						}
						JOINT LeftShoulder_virtual
						{
							OFFSET 0.000000 0.000000 0.000000
							CHANNELS 3 Xrotation Yrotation Zrotation
							JOINT LeftShoulder
							{
								OFFSET 8.476499 7.247704 -3.868750
								CHANNELS 3 Xrotation Yrotation Zrotation
								JOINT LeftShoulder_split
								{
									OFFSET 8.476499 7.247704 -3.868750
									CHANNELS 3 Xrotation Yrotation Zrotation
									JOINT LeftArm
									{
										OFFSET 9.308998 -2.777710 0.208600
										CHANNELS 3 Xrotation Yrotation Zrotation
										JOINT LeftForeArm
										{
											OFFSET 29.972298 0.000000 0.000000
											CHANNELS 3 Xrotation Yrotation Zrotation
											JOINT LeftHand
											{
												OFFSET 26.026505 0.000000 0.000000
												CHANNELS 3 Xrotation Yrotation Zrotation
												End Site
												{
													OFFSET 0 0 0
												}
											}
										}
									}
								}
							}
						}
						JOINT RightShoulder_virtual
						{
							OFFSET 0.000000 0.000000 0.000000
							CHANNELS 3 Xrotation Yrotation Zrotation
							JOINT RightShoulder
							{
								OFFSET -7.570500 7.247704 -3.868750
								CHANNELS 3 Xrotation Yrotation Zrotation
								JOINT RightShoulder_split
								{
									OFFSET -7.570500 7.247704 -3.868750
									CHANNELS 3 Xrotation Yrotation Zrotation
									JOINT RightArm
									{
										OFFSET -9.308998 -2.777710 0.208500
										CHANNELS 3 Xrotation Yrotation Zrotation
										JOINT RightForeArm
										{
											OFFSET -29.972300 0.000000 0.000000
											CHANNELS 3 Xrotation Yrotation Zrotation
											JOINT RightHand
											{
												OFFSET -26.026505 0.000000 0.000000
												CHANNELS 3 Xrotation Yrotation Zrotation
												End Site
												{
													OFFSET 0 0 0
												}
											}
										}
									}
								}
							}
						}
					}
				}
			}
		}
	}
}
MOTION
Frames: 10
Frame Time: 0.03333333
2.501575 85.454201 -3.655052 0.000000 0.000000 0.000000 -10.999345 -46.963933 -8.532299 -24.721340 -5.582491 18.677958 31.725064 -4.723938 -3.359789 0.896001 -5.860174 -13.837954 -9.259889 -5.745085 3.645385 0.000000 0.000000 0.000000 -10.081620 -41.784966 -7.577444 -1.428046 -17.353673 -14.051697 39.756960 -0.897191 -7.849655 -18.007148 -2.040070 17.381211 1.778315 0.143480 1.023469 0.000000 0.000000 0.000000 -13.799631 -43.550867 -10.519616 7.641673 5.742723 -0.977253 13.233784 9.786499 -4.103760 0.663962 2.548448 0.191517 0.000000 0.000000 0.000000 10.936498 8.834019 -4.463049 -5.799131 -3.562368 3.310867 -12.269913 22.501949 -0.147351 0.000000 0.000000 0.000000 11.829680 9.365854 -4.119601 2.948862 -2.516378 -4.877939 -2.663291 -1.467539 -3.801075 -16.037960 -1.913512 -58.135592 17.541562 -53.968436 8.389579 0.000000 0.000000 0.000000 12.337687 9.480859 -4.171806 0.988948 10.081482 12.028666 0.739919 3.989464 3.904443 3.922438 -19.597911 63.884317 -1.713343 47.670889 3.153197 0.000000 0.000000 0.000000 
2.313375 85.045792 -3.438824 0.000000 0.000000 0.000000 -8.704106 -45.356998 -7.159734 -25.944166 -6.025686 19.058495 31.012532 -4.272795 -3.305833 1.233722 -6.679166 -12.883996 -7.996686 -5.607254 3.350089 0.000000 0.000000 0.000000 -8.868434 -40.201346 -6.989626 -2.480786 -17.767325 -12.836954 39.961627 -0.473109 -9.625185 -17.940303 -2.098931 19.771632 1.946324 0.198797 1.059757 0.000000 0.000000 0.000000 -11.753398 -42.965759 -9.489961 7.789143 5.956969 -0.896564 13.250628 9.791217 -4.142635 -0.055522 1.095639 0.719700 0.000000 0.000000 0.000000 10.636120 8.898315 -4.267754 -5.821480 -3.475514 2.918584 -11.878719 22.657184 0.042740 0.000000 0.000000 0.000000 11.849656 9.312701 -4.195359 2.954196 -2.442931 -5.162946 -2.596622 -1.178829 -3.600046 -12.831843 -1.481913 -57.113127 19.064499 -56.026211 9.049786 0.000000 0.000000 0.000000 12.296116 9.662351 -3.915464 1.203710 10.250832 11.664676 0.787776 4.910856 2.420509 3.210650 -19.894137 62.719401 -0.585843 48.393792 1.970637 0.000000 0.000000 0.000000 
1.845512 84.014763 -3.731319 0.000000 0.000000 0.000000 -5.246105 -42.722854 -5.347238 -29.880268 -6.087293 19.768307 31.515859 -3.344894 -2.149373 2.929128 -8.217172 -11.839013 -7.772922 -5.441928 2.929484 0.000000 0.000000 0.000000 -5.933033 -36.656775 -5.822204 -4.561113 -18.404988 -10.408364 41.334075 -0.028341 -12.958339 -17.822258 -1.623320 22.070744 1.114077 0.350232 0.956974 0.000000 0.000000 0.000000 -8.719966 -40.605693 -8.251794 8.288458 5.793843 -1.109782 13.316746 9.529440 -3.869435 -0.180735 -0.372303 1.233020 0.000000 0.000000 0.000000 10.379933 8.756705 -3.697068 -5.783660 -3.569960 2.229884 -11.168327 22.629771 0.178835 0.000000 0.000000 0.000000 11.950440 9.032528 -3.999410 3.005305 -2.740386 -5.404202 -2.807033 -0.935230 -2.972532 -7.038953 -0.838286 -55.774222 19.094714 -60.914113 8.193333 0.000000 0.000000 0.000000 12.285940 9.650227 -3.364634 1.504474 10.109140 10.842299 1.005943 5.056078 1.701651 3.060129 -18.457224 61.451403 2.615980 49.841567 -1.342154 0.000000 0.000000 0.000000 
1.264777 82.421234 -4.624454 0.000000 0.000000 0.000000 -1.068312 -39.094370 -3.632935 -36.437164 -5.720653 20.675937 33.106245 -2.044277 -0.167918 5.482621 -10.411284 -10.656720 -7.729577 -5.182322 2.659787 0.000000 0.000000 0.000000 -1.967809 -32.193731 -4.715919 -7.561510 -19.296451 -6.777242 44.321695 -0.144203 -17.600580 -18.438575 -1.033791 23.454697 -0.140753 0.545523 0.776605 0.000000 0.000000 0.000000 -4.774682 -37.208962 -7.010478 8.879763 5.375401 -1.542366 13.367063 9.059371 -3.362389 0.209124 -1.349224 1.248729 0.000000 0.000000 0.000000 10.277913 8.403316 -2.906914 -5.904017 -3.717584 1.389265 -10.326680 22.552376 0.161601 0.000000 0.000000 0.000000 12.081065 8.614091 -3.581334 3.065770 -3.218773 -5.437011 -2.891435 -1.260309 -1.858913 0.190444 -0.180426 -54.435771 17.732172 -67.713123 6.095842 0.000000 0.000000 0.000000 12.341220 9.436246 -2.669371 1.779025 9.637194 9.732921 1.749027 5.124204 1.699349 3.353541 -15.624317 60.487110 7.657554 51.838680 -6.575532 0.000000 0.000000 0.000000 
0.603130 80.422707 -5.799541 0.000000 0.000000 0.000000 3.502638 -34.892937 -2.451125 -44.785035 -5.075802 21.661819 35.875890 -0.541408 2.277454 8.779590 -12.857650 -9.081056 -7.030902 -4.751158 2.509966 0.000000 0.000000 0.000000 2.540112 -27.662211 -3.924774 -11.490659 -20.660134 -2.291131 49.598016 -1.468417 -22.942182 -19.682076 -0.601578 23.634345 -0.615887 0.792897 0.497738 0.000000 0.000000 0.000000 -0.385100 -33.492577 -6.028750 9.384335 4.891415 -2.048907 13.379644 8.448797 -2.758543 0.934332 -1.836278 1.035480 0.000000 0.000000 0.000000 10.446442 7.883600 -2.102381 -6.506016 -3.794263 0.530941 -9.639706 22.588812 0.055772 0.000000 0.000000 0.000000 12.272494 8.127211 -3.067775 3.142480 -3.617485 -5.152019 -2.498444 -2.192431 -0.741153 7.227581 0.201424 -53.734936 15.102711 -74.715234 2.855004 0.000000 0.000000 0.000000 12.523546 9.015776 -2.007466 1.983300 8.696866 8.412809 2.895622 5.172563 1.890991 3.865055 -11.869919 60.141127 14.095429 54.038971 -13.329916 0.000000 0.000000 0.000000 
-0.039031 78.101181 -7.127419 0.000000 0.000000 0.000000 8.144925 -30.583251 -2.035873 -53.927632 -4.198719 22.451902 38.894400 1.230615 4.619140 11.919174 -15.048553 -6.626088 -6.183524 -4.161136 2.641324 0.000000 0.000000 0.000000 7.277506 -23.452057 -3.549151 -16.745030 -22.637098 2.407834 57.299618 -4.346793 -28.080383 -20.929177 -0.198291 23.114796 -0.030786 1.068372 0.029936 0.000000 0.000000 0.000000 4.499422 -30.362342 -5.186040 9.684550 4.592257 -2.467711 13.350765 7.784780 -2.162707 1.737372 -1.605743 0.840675 0.000000 0.000000 0.000000 10.883163 7.313299 -1.435648 -7.950537 -3.845407 -0.285567 -9.338634 22.827838 -0.092945 0.000000 0.000000 0.000000 12.492241 7.644133 -2.493767 3.208217 -3.600496 -4.406062 -2.154412 -3.247984 0.124753 12.973236 -0.211073 -54.157919 12.172888 -79.770182 -0.520639 0.000000 0.000000 0.000000 12.860534 8.454419 -1.516213 2.160667 7.130257 6.862777 4.194640 4.853955 2.211427 3.849880 -8.149441 60.426096 20.871132 55.558879 -20.601584 0.000000 0.000000 0.000000 
-0.435571 75.343658 -8.772308 0.000000 0.000000 0.000000 12.690011 -26.154263 -2.313724 -63.537548 -3.092911 23.020937 41.612955 3.424719 6.446339 13.946814 -16.932935 -3.661862 -5.592319 -3.472891 2.585733 0.000000 0.000000 0.000000 11.748844 -19.805619 -3.637238 -23.657742 -25.114662 6.513353 66.544627 -8.307586 -32.262481 -21.607891 0.144588 22.995111 0.801580 1.283798 -0.689546 0.000000 0.000000 0.000000 9.479009 -28.011733 -4.529463 9.820659 4.534518 -2.783930 13.309639 7.158984 -1.611717 2.051077 -0.878593 0.868145 0.000000 0.000000 0.000000 11.490559 6.734760 -0.920757 -10.477064 -3.856218 -0.968438 -9.524971 23.138435 -0.082955 0.000000 0.000000 0.000000 12.752877 7.192278 -1.923844 3.262868 -2.958369 -3.162959 -2.448598 -3.886875 0.748982 16.343422 -1.643179 -55.836814 12.517883 -81.848349 -0.264975 0.000000 0.000000 0.000000 13.382851 7.839527 -1.183927 2.304130 4.877973 4.902866 5.542554 4.784308 2.222524 2.469927 -5.208106 61.474476 26.356759 55.756572 -26.912556 0.000000 0.000000 0.000000 
-0.523786 72.089005 -10.287991 0.000000 0.000000 0.000000 17.006888 -22.279281 -2.942973 -73.353226 -2.536793 23.217688 44.708397 5.439489 7.533742 15.809892 -18.897448 -1.297639 -5.876369 -2.756967 1.936536 0.000000 0.000000 0.000000 15.851513 -16.657638 -4.004690 -31.913123 -27.550866 9.435403 75.848049 -12.753070 -35.366658 -21.796298 0.337449 23.362582 1.486727 1.445474 -1.613046 0.000000 0.000000 0.000000 14.149273 -26.291529 -3.978289 9.818872 4.707381 -3.076552 13.346295 6.564166 -1.086734 1.707069 -0.297169 0.753409 0.000000 0.000000 0.000000 12.152959 6.237876 -0.537105 -14.144676 -3.823304 -1.552843 -10.249601 23.442150 0.311184 0.000000 0.000000 0.000000 13.202740 6.780013 -1.372829 3.321263 -1.635994 -1.442450 -3.202615 -3.447129 0.656030 16.531313 -3.873820 -58.914268 16.386744 -80.530553 4.115487 0.000000 0.000000 0.000000 14.049828 7.240340 -0.941227 2.453896 2.049593 2.406920 6.669699 4.679269 2.049727 -0.153531 -2.627895 63.278301 28.775177 54.399318 -30.459352 0.000000 0.000000 0.000000 
-0.461040 68.353416 -11.566250 0.000000 0.000000 0.000000 20.961454 -19.421619 -3.462886 -83.077032 -2.941437 22.612116 48.738058 6.965332 7.966329 18.516011 -20.923711 0.340698 -6.555788 -2.101740 0.913115 0.000000 0.000000 0.000000 19.410645 -14.016823 -4.530031 -40.759652 -29.434871 11.209083 83.460581 -17.142894 -37.436339 -21.800560 0.275168 23.395915 2.137579 1.520930 -2.321034 0.000000 0.000000 0.000000 18.527556 -25.130426 -3.403097 9.675819 4.975703 -3.435433 13.565521 6.052755 -0.574135 0.631092 0.004544 0.700012 0.000000 0.000000 0.000000 12.806924 5.870518 -0.210403 -18.616094 -3.856573 -2.071059 -11.357296 23.456113 1.117597 0.000000 0.000000 0.000000 13.870879 6.463443 -0.825921 3.360131 0.174928 0.469866 -3.954768 -2.419598 0.072628 13.879923 -6.353507 -63.274306 18.389028 -76.467984 7.558117 0.000000 0.000000 0.000000 14.795361 6.764960 -0.710911 2.642890 -1.033123 -0.549514 7.628623 4.489426 2.037211 -3.722931 -0.032264 65.668676 27.879919 52.093238 -30.820180 0.000000 0.000000 0.000000 
-0.339931 64.486679 -12.049114 0.000000 0.000000 0.000000 24.438304 -17.619924 -3.545679 -91.876720 -4.044289 20.995361 53.377720 7.951729 8.060386 22.048204 -22.440819 1.361055 -6.585659 -1.602873 -0.140075 0.000000 0.000000 0.000000 22.607528 -12.439244 -4.678938 -49.071627 -30.404082 12.000105 88.575860 -21.124575 -38.724048 -21.604858 -0.140191 22.592913 2.448064 1.494506 -2.285950 0.000000 0.000000 0.000000 22.233150 -24.142957 -2.893392 9.425040 5.051308 -3.875248 13.952195 5.650603 -0.051450 -0.414546 0.137368 0.653105 0.000000 0.000000 0.000000 13.448229 5.583440 0.125956 -23.154807 -4.051991 -2.553941 -12.575748 23.204533 2.247972 0.000000 0.000000 0.000000 14.709098 6.218986 -0.294905 3.362535 2.190003 2.257925 -4.194162 -1.258065 -0.515483 9.156080 -9.295367 -68.211330 18.633483 -71.900937 10.071081 0.000000 0.000000 0.000000 15.552139 6.401665 -0.455941 2.806202 -3.955672 -3.864434 8.505866 4.535662 2.317601 -7.981594 3.580839 68.217723 25.393296 50.686670 -29.522851 0.000000 0.000000 0.000000 
